<svg xmlns="http://www.w3.org/2000/svg" viewBox="0 0 500 500"><title>signature-transparent-vector</title><g id="Layer_1" data-name="Layer 1"><path d="M72.41,420c38.73-75.6,77.83-151,116-226.88,17.49-34.75,33.18-70.41,49.65-105.67,1-2.1,1.71-4.31,3.1-7.84-37.67,16.46-73.92,32.87-114.91,33q14.33-4.8,28.67-9.59c27.88-9.36,55.74-18.81,83.67-28a38.15,38.15,0,0,1,14.32-1.37c-51.6,115.94-109,228.1-170.09,338.62,9.49-3.19,9.34-16.84,21.31-18.89a67.24,67.24,0,0,1-26,33.14c-1,.66-3.77-1.33-5.72-2.08Z"/><path d="M427.59,217.4c-10.16,18.57-37.9,23.55-55.21,9.81-1.71-1.37-3.31-2.89-5.08-4.17-4.23-3-7.49-4.08-11.32,1.58-6.82,10.09-21,12.57-31.2,5.69-4.58-3.09-8.46-3-12.87-.8a77.13,77.13,0,0,1-49.67,7.28c-2.13-.38-5,1.59-7.07,3.15-3.42,2.62-6.06,6.39-9.7,8.56-4.65,2.78-9.56,1.51-13.37-2.28s-2.92-7.88-.36-12c4.1-6.62,7.76-13.56,12.31-19.85,4.9-6.78,9.81-7.18,16.18-2.12-11.23,6.8-19.83,15.58-22.35,29.1,10.55-1.85,14.76-6.39,27.51-29.57,5.25,1.56,3.92,5.85,3.76,9.41-.15,3.35-.76,6.68-1.07,9.21,9.29-.46,17.17-.68,25-1.29,3.81-.3,7.86-.67,11.3-2.17,5.63-2.44,8-6.45,6.58-13.46-8.22-40.48-2.14-78.92,17.93-115.06,4.69-8.43,6.31-9.59,14.21-11.08-24.29,38.66-33.33,79.86-25,125.8,14.21-13.63,20.54-30.12,23.19-47.92s3.75-35.76,5.45-52.82c4.11,13.51,4.12,28.47,2.53,43.33a125.21,125.21,0,0,1-22.22,59.55c-3,4.32-1.47,6.44,2.06,8.71a14.46,14.46,0,0,0,18.14-1.48c3-2.83,5.52-6.22,8.61-9,6.33-5.59,12.84-4.46,17.54,2.52,6.27,9.29,15.62,12.93,26.05,10.78C409.08,224.88,418.19,220.66,427.59,217.4Z"/><path d="M109.06,393.94c.62-2.48.61-5.38,2-7.36,25.18-36.93,54.94-69.72,90.26-97.16,5.36-4.16,13.17-5.53,20.09-7.14,2.34-.54,5.44,2.18,8.19,3.4l-.54,1.9c-5.4,2-11,3.58-16.16,6-16.8,7.66-29.75,20.35-41.87,33.74-18.33,20.25-36.08,41-54.08,61.57-1.75,2-3.61,3.88-5.42,5.83Z"/></g></svg>