<svg xmlns="http://www.w3.org/2000/svg" viewBox="0 0 250 250"><defs><style>.cls-1{fill:#fff;}</style></defs><title>zacheh-logo-vector</title><g id="Layer_2" data-name="Layer 2"><rect width="250" height="250"/></g><g id="Layer_1" data-name="Layer 1"><path class="cls-1" d="M32,213.55C52.24,174,72.68,134.62,92.63,95c9.14-18.17,17.34-36.81,26-55.24.52-1.09.9-2.25,1.62-4.09-19.69,8.6-38.63,17.18-60.06,17.23l15-5C89.7,43,104.26,38,118.86,33.22a19.9,19.9,0,0,1,7.48-.72c-27,60.6-57,119.22-88.9,177,5-1.66,4.89-8.8,11.14-9.87A35.12,35.12,0,0,1,35,216.93c-.51.35-2-.69-3-1.09Z"/><path class="cls-1" d="M217.64,107.68c-5.32,9.71-19.81,12.31-28.86,5.13-.9-.72-1.73-1.51-2.65-2.18-2.21-1.6-3.92-2.13-5.92.83a11.84,11.84,0,0,1-16.31,3,6,6,0,0,0-6.73-.42,40.32,40.32,0,0,1-25.95,3.81c-1.12-.2-2.64.83-3.7,1.64-1.79,1.37-3.17,3.34-5.07,4.48-2.43,1.45-5,.78-7-1.2s-1.52-4.12-.19-6.27c2.15-3.46,4.06-7.08,6.44-10.37,2.56-3.55,5.12-3.75,8.45-1.11-5.87,3.55-10.36,8.14-11.68,15.21,5.52-1,7.72-3.34,14.38-15.46,2.74.82,2,3.06,2,4.92s-.4,3.5-.56,4.81c4.85-.23,9-.35,13.07-.67a18.79,18.79,0,0,0,5.91-1.13c2.94-1.28,4.18-3.37,3.44-7a85.31,85.31,0,0,1,9.37-60.13c2.45-4.41,3.3-5,7.43-5.8-12.7,20.21-17.42,41.74-13.05,65.76,7.43-7.13,10.74-15.75,12.12-25s2-18.69,2.85-27.61c2.15,7.06,2.15,14.88,1.32,22.65a65.33,65.33,0,0,1-11.61,31.12c-1.59,2.26-.77,3.37,1.07,4.55a7.56,7.56,0,0,0,9.49-.77c1.57-1.47,2.88-3.25,4.5-4.68,3.31-2.92,6.71-2.33,9.17,1.32A12.56,12.56,0,0,0,203,112.62C208,111.59,212.72,109.38,217.64,107.68Z"/><path class="cls-1" d="M51.15,200c.33-1.29.32-2.81,1-3.85a221.7,221.7,0,0,1,47.17-50.77c2.81-2.18,6.89-2.9,10.51-3.74,1.22-.28,2.84,1.14,4.27,1.78l-.28,1c-2.82,1-5.72,1.87-8.45,3.12-8.77,4-15.54,10.63-21.88,17.63-9.58,10.58-18.85,21.44-28.26,32.18-.92,1-1.89,2-2.84,3.05Z"/></g></svg>